<mxfile host="app.diagrams.net" modified="2022-12-01T11:43:25.379Z" agent="5.0 (Windows)" etag="h6BSSGu4-8ZQTyu03Y9L" version="20.5.1" type="github">
  <diagram id="nSloumuoK4t2G1rL6ZXJ" name="Page-1">
    <mxGraphModel dx="1360" dy="820" grid="1" gridSize="10" guides="1" tooltips="1" connect="1" arrows="1" fold="1" page="1" pageScale="1" pageWidth="850" pageHeight="1100" math="0" shadow="0">
      <root>
        <mxCell id="0" />
        <mxCell id="1" parent="0" />
        <mxCell id="1ywnFp6fYwldvOLJxerw-1" value="" style="rounded=0;whiteSpace=wrap;html=1;fillColor=#60a917;strokeColor=#2D7600;fontColor=#ffffff;" parent="1" vertex="1">
          <mxGeometry x="80" y="80" width="360" height="200" as="geometry" />
        </mxCell>
        <mxCell id="1ywnFp6fYwldvOLJxerw-2" value="" style="rounded=0;whiteSpace=wrap;html=1;fillColor=#1ba1e2;fontColor=#ffffff;strokeColor=#006EAF;" parent="1" vertex="1">
          <mxGeometry x="80" y="400" width="400" height="210" as="geometry" />
        </mxCell>
        <mxCell id="1ywnFp6fYwldvOLJxerw-3" value="Speech-To-Text Service" style="ellipse;whiteSpace=wrap;html=1;" parent="1" vertex="1">
          <mxGeometry x="90" y="90" width="120" height="80" as="geometry" />
        </mxCell>
        <mxCell id="1ywnFp6fYwldvOLJxerw-5" value="" style="endArrow=classic;html=1;rounded=0;exitX=1;exitY=0.5;exitDx=0;exitDy=0;" parent="1" source="1ywnFp6fYwldvOLJxerw-3" target="1ywnFp6fYwldvOLJxerw-6" edge="1">
          <mxGeometry width="50" height="50" relative="1" as="geometry">
            <mxPoint x="210" y="170" as="sourcePoint" />
            <mxPoint x="270" y="110" as="targetPoint" />
          </mxGeometry>
        </mxCell>
        <mxCell id="1ywnFp6fYwldvOLJxerw-6" value="Raw Data" style="ellipse;whiteSpace=wrap;html=1;" parent="1" vertex="1">
          <mxGeometry x="290" y="90" width="120" height="80" as="geometry" />
        </mxCell>
        <mxCell id="1ywnFp6fYwldvOLJxerw-7" value="Output" style="text;html=1;strokeColor=none;fillColor=none;align=center;verticalAlign=middle;whiteSpace=wrap;rounded=0;" parent="1" vertex="1">
          <mxGeometry x="220" y="100" width="60" height="30" as="geometry" />
        </mxCell>
        <mxCell id="1ywnFp6fYwldvOLJxerw-8" value="" style="shape=flexArrow;endArrow=classic;html=1;rounded=0;" parent="1" target="1ywnFp6fYwldvOLJxerw-9" edge="1">
          <mxGeometry width="50" height="50" relative="1" as="geometry">
            <mxPoint x="440" y="190" as="sourcePoint" />
            <mxPoint x="490" y="140" as="targetPoint" />
          </mxGeometry>
        </mxCell>
        <mxCell id="1ywnFp6fYwldvOLJxerw-9" value="&lt;div&gt;AI model(RNN/LSTM)&lt;/div&gt;&lt;div&gt;&lt;font style=&quot;font-size: 24px;&quot;&gt;Input Data&lt;/font&gt;&lt;br&gt;&lt;/div&gt;" style="rounded=1;whiteSpace=wrap;html=1;" parent="1" vertex="1">
          <mxGeometry x="520" y="160" width="120" height="60" as="geometry" />
        </mxCell>
        <mxCell id="1ywnFp6fYwldvOLJxerw-10" value="" style="shape=image;verticalLabelPosition=bottom;labelBackgroundColor=default;verticalAlign=top;aspect=fixed;imageAspect=0;image=data:image/png,iVBORw0KGgoAAAANSUhEUgAAAY0AAABOCAYAAADcrEp/AAAcYElEQVR4Xu1deWBN19b/yRclhsSYRAhCaJCaiUgNpWrqqxbP82laLa/9Sh9KW7RFh5ROqmhL6z3aop76DNU+VNUs0tCKhEbM8xyVGDIQyVvn5A7nnuGec4fk5ibr/HnvPnv4rX32b69hr12uavWgAvDDCDACjAAjwAgYQKAck4YBlLgII8AIMAKMgIgAkwZPBEaAEWAEGAHDCDBpGIaKCzICjAAjwAgwafAcYAQYAUaAETCMAJOGYai4ICPACDACjACTBs8BRoARYAQYAcMIMGkYhooLMgKMACPACDBp8BxgBBgBRoARMIwAk4ZhqLggI8AIMAKMAJMGzwFGgBFgBBgBwwgwaRiGigsyAowAI8AIMGnwHGAEGAFGgBEwjACThmGouCAjwAgwAowAkwbPAUaAEWAEGAHDCDBpGIaKCzICjAAjwAgwafAcYAQYAUaAETCMAJOGYai4ICPACDACjIAmaQTXCUHX7j3QMKwRKvr5uYTUd8uW4PChVJfq4JcZAUaAEWAEPI+AKmnc36w5/jbsKbf17tTJk1i8aIHb6uOKGAFGgBFgBDyDgII0Klb0w9gJr1q0C2HBd/ZpGBYmvsqk4SyCBt+r+QpaTxiHuv45yNj6FhJWf4t82av1XrqEVk2EH6/g5OyWSD0qK9BkEXq81A+iTnl0HtbNfsdg41yMEWAEigOBgNhkPBgdZGkqO2EstixdURxN27ShIA3BHPX0iOfEQtu3/ILtWzc73alpce8xaTiNnvEXqw5NQtcudQpfyE9B8vhHcC7P9v3SQhq1e0/AqAdr0+BuIfmr6Vh7Qh+ngNgU+tgCdQreRd7tLORnXcb10wdxLvEbXElNVJCvfmtlq4RP1aEI7P0Y6ke0RECNANxXobwVgLws3MnNQvalFFzY+g1OJW1kPF2YHiWWNLo91BPdejwsDm3xon+SlmDgq9QAgknDhRniwKtlhzTCMWDySLSqTOCk78D8ORtw1QBOxkhDpaK8q0jf+TUOrPsYWdkGGipLRXz/gvovxKHF/cHw8TEycNrM/KM3zhUUGCnMZVQQYNLgaeE+BMqIecq31dN4dXAzlKf96rmfpmNRfJYhDJ0mDXPtOSdwctkEpP7+q6H2Sn0hmm9tXhmPEP//cWCoTBoOgKValEnDVQT5fYcQ8H7zVCVEP/8GeoXStvbuIayZsRgHZCY4LUAUpHFlBw4kHLEpXqFuGwRUr4mAenVRUWpiMZfKv4nLa57Cb1vKOnF0QtikVWheX0YYZIq6dX4/rlKU5K3cQtAETGs3aIaA2pXgAyYNhz5Y1jQ4esrVCePq+15PGrX7YvTYrqhFQNzatxCz1hwzDImCNOw6+kPge/9IRAx8GvXrVUU5aSv5F3Hy80eRmnbecNulrmCHVej9TAx8JQPLO70MCZ++jBvZ6qYnn8CRaPzUI7j98VBcAJunnJ0TJULTKFcOCkc4+zScFWnJfs/bSaPRE28gtm0VAvkqds+dhV+MODNMInGMNMxyDEf12O/QKbou7ZKtT8GlFdgeNw63y+jiVy32IGKiBeo2Pbd3IvH1IUjPYzIo6hWgJJCGb/nyTBpFLeiSUr93k4bVAZ5/dgNmLdgBY96MQvSdIw3hzRDUGrkFUW2rScSYiwtLGiLp17K5SFrnkQkSDs8utk+8JJBGQECAF5NGj5/Rf1BLUWDZCeMoXvk7wG8Q6g56AeGtmqJypQpkWqAwyozzuLzjI6RsXGUT7ufTeCoiHnsC9eoHofx9gn3WVDbxnzi8fiGyDdrLhZDDOgNiEdasCSpXCYCvSW/Pz81E1qXfcWHnKhxPsG1bOsucc9KSffhFCqs1V2TgjIX7SCMcldqMRqOHOiMoOBD3VRbs1cJzTwxXzUzdgIPL3yBThfu+JakD/MQP07B07z2HKneeNKgZ/2no+PZo1L7P2uS9gx/gp/mfaPfBl8JPu7yE8JiOqFW7lu2cOBuPY+tn4+LhFEPhp9b51RxVq5mxFsKDryIjZQ3S1i5E5s0L6n2RzguhxPX12DVlJDJJS/Kp+zLCn/grQhuZfThm+W1D2rqZ+POKep21Rh4hEvW3tiep0yGhmArLSejqqmDs2UJ/Chj2nIwW0R0QULNqYYQW+U1yrqbiYvxXSNuq/U3Z9sM0X3t1R0gd87cOFNy5idxrKTi5boHxUGA3ylUcX4cXENqlE+rUrony4nolPIWyvXlIKQdt0giHf+93EKnAKgknf/gUp1K2GZprRuQXFFyn9JDGtt9i0Pm5IQioqDb0e7iT9iV2fPoOcmn3WG3gSkT1bGRjl5W+lX/lRyRMfx4ZdlXuTqgVOxNtosJxn07IYX5GPJLnjMEFlQ/RGdLI2TcNWxcusE6E4iKN4DhEvTwCtSrpRM3kncfx+Y8hzS22f+cd4GaZukQaVEnQqNNoH1nBOkVub0PixP9FuoqJyidyHqKHD0A1uxjRfDzxLRLmTMQtzc0JmccGf4323XTmFzno0zdMwN71PyoXBlXSmIJyA1egw0N26s3/ExeWj0RSfILiYyrfdxt6PRoh8fXcw+2EidixVHmg1MgipEoayabDqtUkZz5kleVdWIHED8bSN6rdik/ga2g5bjTq2qlHeDv/ymbs/exJpF+zU1fk5yTXxw3KdRLJVVsTrdBuEdoP7a1TF/VFpsWpksaGWoj8x2toEKiF1V3c3DkZu5Y7Jx85IvUaNCwlpLF/PW5F9KPd4E3cPLAJp079SWOtgRrRvRASaHZm3sONzc9hT8ZL6E4aii8xevYxKvvHBeRRWf/WXRDaoLbFfp2z93Vs/nqRxizqhHovLaMT1pVM/99F7sVkXEjeb4oc8UOVpjEIadIQFcwewxzSDmaQdiCbmOUjJqFO/ap2v69ydXuiWfswiEv19Y2If2u47cdSXKTRZCGdGu9Pp8ZpV3rjLK4d2YdL5wWs6fFvhoZRnVDVvFjm/IrfJj2OywY1Nk0AXHCAu4s0fHr9gr6PR0q6eASpr3fDyUzbhaFCzPd4cGgnVDR0boE2zrQobKOT96ZgI0n9tPsctQhtImvYOuI1QcrC1VXDaIcui+xSIY3ELfXQTpz/Oo+W0993PNp8MAkhNpszIsFzG5G8cAquaGgoWq0pSOP7l3HrwQ8RVks/nFcbP8AnYq6dTaSyNwXp67E7boQqCVWIWUNyjXaDXENQpd8yxPSP0Mdf6KIuaSzApSYjDWCVgdPzI3DwoJ7Q9f8Pa9y4dJBGQf49lLtzFKlzhuHkGalaTUIavBpdHyJ2FPC4fQXZ5QPh53sRp778K/44aBuBU4FMXoWEQs+dPdg3cQAu3pXvGEhTiV2HztGkplGxgqw/kPbFCzhxXJ6Xg/4kc1mjMR+hWYNCcnHKier7JJpP+QBhtalX4ofcn6J3ZKaDYiONeYjqfR1p33yubhKR9lXgt3V9sHv9fv2ZaKeEKw5wd5EG5IuvmIqlFaVikcyN0LnoMnEI/M2EQRpARuIXSFplPhhIZpLo19F2cD+JNnyPMBpEGNku9pUH/opuPU1zVpxjx3BqdRzSEkwnqv16I3jQNLSKbmxdfPKJyN7qipPSTYm833eykOdbCb4+tGE69CNSt6xG5nVqoHpL1OvxLMKbWTdNInai6WkEmbNsn/Ld1qPHkLbKhS8/F1kn1uHQilm0mTAW3SYnjbycLPhWrCSO+cwvS3Em5Rht7/xRueUg3P9wd9nuPJfIcgCRpWyOKYhNGO9i/G6Zt0KE3Ito/cwzCJKcNVFo8MKwQ+egy6t/g6WYYbkOJrnaamqquOVlIvOPzTi2yyQLv3AEdo1F03akCR63Tecj1zTuEVY+hBUErNYvwHFhXaD36/Qfi4gI2w1HARHQT7RBkacXcvTjbNykaekgDdBeTXXyiIj0RdM3v0ITSxYJQeP4O3au3qCCl7SshsNTujiofajyWoWFdKp555SLi8s6Y1+80ZBNgaA2ULSKkG+GzAA7x2PbcpVcM8VFGgZmmE/MWjwyLErUigrS5mL9pzMMvKVRxLcNhlJkTlPSvJ1xgLuNNPw/ROf3nkZ1SzflpNEaDSeuQ4sG5t2xxs6f3veJ+Abdx/QuzPGltjD7z0D0uyNQw1yVhoYqOOmtc6OwKkUuIgXZCaW0+2azaRJrFL6BBuT0V8rHvlZFmvfpTUj5Wl/zUDjWhXkj7vpHKs3DNt+SqU8UzbYlbiykLrQaz6QhuoM5eMGO+azm24ia8n+oZfZXKVLwCHL9D8nVrJe5IFcVDa0gfRv2zCUz5zWlKUswrbXqUw5Ji63fj5w0CufPZuye/iSu2/gQO6H+y8vxQCOJOniHNP/xpPk7/zWKb5Ye0hBtzEPJxqz+2Ni0BQ3i1cdwUcNsIi17fV1f2i0k2VQq/f/m1mexY6Ua+dj2wyfmB1pIOxYupA4wvk+nNej1VLS4oyvUUsZSqKfKU4JIA/4foPOM4aguqGEaO1Wj89a3w0hMfiycTIZ3cGTlO1ie7JgD3NyOqz4NgJzhn5Mz3NJxGWmEzkPXyQNhNjIWnP4Kmz58jXbIak9rOhz3Ex2OM/93EcdntkGaKS9o5cF70f2hUNOf9/Dnf/ojYYOGtibFWngj/UfsePM53DRXrUIaOfveJH/Ylxo7Tjn5kcJN/rNN5D9Te3wCaUc7cgways+zmAsLu/Lt05Gw8mvNHa6CNPQ2YpHfoueonrAuh6RhvUYa1g1To76voO1Hr6COmQhubkbC5CdhMqIqhmHr2L+Hyyvq4rftpmKCXCeRXE2HdfTluoHkaj7ZYytXhS9I3AxQWhUVwtD6PpSkkYGz/+yBlP0qQQuRSwmnhyU4ncaRuCgcvWT061Mvp2ueysnOdvkuDaHpIslyK4me0t3ROlnWEpVlwa8HmkxdhqbBwg+OCIHswJ+QHViYyHacqDZi8n8d7aeNRZCwJdX7kEoSaWAqOn72Imq7TBoSB/jt37H0/ZVwNguay6ShY57yG5iIHj0bWMSnZ5aTn3WwRAxBmF/f0vwyLzyyBVHxHT+JFu/OREORoYXHTlSd+P85HH2/A46c1XbS+tC30odMtJZDjSo7edtuhMAvKg6tn3gENaqqO2PzTi9G/Cx1p7+cNO6lzsTPn8+0Y0YZgubvzkWYRe2TaUO00epDGy2zomaP9IRxyP1VUm3NcbkeIKuAdWthlat8owAY3XBKsVaQht1N2WtoP3ccgiyuIY3s1g5yiK4j3MH6NIsXNWkoF3dZV9TCc7V6a7esZPHPIIf0G+SQNgSSlGwO4sBLvXBG4SuRViR1tOci/fuhSNykjGSxvOEJ0qCQQb/6nVE9vB4qm1NwBFeHbwVr2LFLmobEAZ6+6xPM23jFENJqhVwmjdbL0eu57rBG3Qobhk60aytcfEPGnEebCH3HrdYAbu8cRWbHNfS3/EN3dMi2u1uFL8bIhkU14krp11D2jMij5StoPngQgmqaw0etpbSc1nLS0CNcoUbNMF36r+rQfZTxOcRR4CzlpRtQ98lVsm6ILTmy4bQORUEads/IELnGzUFYDTP9u4c0dENuhe4mJ+1DxnUt5c6+bMzZcksPaUjMFA6aXmzPScicqDIYpbZlexEixU8apoVh4OMIFPMJ6TwOYiStzeoAv4yds2djq51wSL1uuEoa8h2nXFtUs8vr9Un6v3V3K9HSHKnAUla2MNg5p6FZvdOkYa5R0DzeJYe/PKRU8Ds+Tk5rW3OvPQLQ6qO9d1Tt/o5gKVmI3SdXuXlTphEa7J9jh/uKhjR0D/etXfP/SN63z+CQlMWKNDW627QHWb/t1lsMpFGTnK5vkdNVWJFz9iHp7f64cEPn9HGxaBrkeB36A6K71JOQReEdFHk3ziAz8yoyD5/A7avVUf/vg1BTgNVZ0nCTA9wsWddIQx5IQSEJMhOKfHERDnbmORBqnJU4GfGrBE1DThqmOz4Mf4HpODU/BkfN96Z5hDRMnaVMuG1fJd+CNJpcNHWNI6e1dT4XNWkIh/ju3nUgZuj4Qmz68kNxEO6Ta+khDe9OI+Jp0igS81Rfsmn/i2zagqkjiyJXulDkioFIq2IgDRunvBji9xnSdi5XWRxd92lUihmFCX3qu+wAdwdp+JBp6iEyTVkdr8oIOGcWPnUekJOGcztSVQ3UQuKFJ8I1n07fk0+gk8UnAF2fhnZVCv+ISqZbx7GTmnqFtm19Go7txu2zseN906pPThp6vir1ehwbW9FoGlBLWCi9Hzwt9Q+s+PdSShldHQOeGKw6EsFZLpRRe0qfpvEEIt6ej8ZivjZHBC/3hTxDvhD75z9UY8a15mSRk4bgyDNHhgjO1PbkTNXqjKukEYiHx41HZwFjFx3gLpMGhXi2eOtjcjRbx6p21kbu2Hb+Gk65Y9tFO7Rc08gnzXUsaa52LkKSa2W6KVPsrbuKAAJlenT5wmz172hU7EsL8CcUyWaxjdr6B3x6baKDmA9YXnYkWlHeolvlOp3mkSWFmbDxiKbQe430LxpDLxGkQX1TZLkV+vv86DEIrlPoTHpn6muQXgGrNh6hjHC3+JBhsWJZ+VN6fBqgBHbW3DtGIyCkIbdaH6FPxCJ0fbEfKgsfg9qpb6Mfp4ZzzLXcU8+j5QdvI7QKOdX0NCxpqJ8z5ik3OsBdIg2/Z9B8YhzCpOkZtE5Jy3fnLpyGDxp1ilKWWPWaPMpztYnyXDlgYLHOFMWire5XsLzgS3J+9x2EWkxK98gP0YH8ENbFLWToctzZROHtBnxM5fvtwCP9m1r7o0JaCr+BzpypQHX2pDot0V3y8sF0GG8qHcYzt5pPpPIhhZpqbnLsfFhulattKpoCCo+Of/N5+1qfrGslmjQEwhBSpJ86dQKJu+MNkYY9YjlMF7N8t2yJvWXP8f88Yp6ibko/xDsUCfXuwzhj7wOyOZCkcpJYGLl0R6t16tujpEGa0iwKGRbSL9k9EyM7VOQEaVgc4Pln6KzDfCSoHkxxbLo45NMQE+XNQLt+7SlzgLQdezl8nkXk+++hgcR+n3d0AXZ8Nk078aVvdwTGvoJq8Y/iiDSZgCK+ng6UfT8Cv23STjonnJdoPqQZzn42yvb0ttrhPs3Dgp0QPPprtGshyeircqZJXOTD9K/B9Wk8C1Gjh6GGNN3ImcX4mVKQ3LXj0xAPsWrksvKpPw+dXx2IAEkEhnLjpjxrUpC+EQnvD5cdgJPKlhL+PfYlGmb2RIr5jIb4N8n1vRlo4G+9VcW4XP9CcpVYExTnS4R8eAuxa776HDFyuM++RltE5iktTUP+SRrRNIR3Bgz8KwKqSXR5+i03Jxvbt27GpYuOqWK6y4KnSINO4gaN2kW7QVNqEAfSiKjvGqX12Tn17VHSkJ4foBDgH4Zj70b5IkYJHEfOR8e2helVxMdR0pA4wO+mrcBH3yZRXjDXH/2b+yhXWFgEqtRugOqSrLTWlrOQuXkqdq/WTvqm2AHTy/kZB3D6lyU4uX83sq9TWg1TmHJgZ0ov0645Kt13jdKRtKR0JNIxCjfjraRDYlLGKsyTdnjjMqSf/AW5dPrXp2o3VAl/BPW690eDRnRPd6ZKyg/VE+HUFt19fmnz5zi6NwlZtyqifGhXNB4gv3SqMFfbztXrbQRgoxlQ2pCcy0dwOS0RN8yH6/wbITiiHWrWCZBF16n76NQjlIRcVtuQuvYr/Hn2CvKrhKNqhxFo2VNG5BoandIPJaRiOUsZpxfixK+7ceuKkGE4HBXqUMh4zACEt++IADpjYj1XYR1yhX7bSbO53yYHmDG5yiMkbdcNcwtivxL/jdPxKcgRfhTSgDxMl1Y9EKqbRsSrSEMgALP5ShinYJ4q9sdjpEEjJc0g4o330dhiutBPWFiYOfc5RUI0m3w02ak4/vNuA3dFnEf6z/Ot5Yrcp0FXd9p8PMJ49+D0nkNisj3fwNYIiWwlfnh5B39FRiQRiBOkYXWAZ+HAkjissb2R1ekp5kwmYUtjlLH39LKXkZqol16aztaMWYKWEbLb/uz2WsNnUXMq2k9+AUF62YSldasRtCJ6ag8u5LZDiBhoYf8xeq5Cr57C/7W1BzlppNP8qUbzx1hCRZU8bGJ7QqTfjxTpZ3uBll5f1UgDEOS6mOTqbzB5pNCKtkWhyaQ4NA0xJzrV6ZFuwsKxdCWESlohsdoSomnkkNawYtlSOuF9AlGdY9C776Ni98ocaQiD9v0L6r8wAy3kSd4U84B2icnzkLDoPaWpoiY59V4np55qOnd7E8oT92nofTxmdTsPD8ymMTl8Itz9DnAzgk6RBiWS+zNpKf74Ls6Bu0GMp8sX7x+5tgv7Zv4Nl827dKnIa45G8+fHa6fokJYVEgUmz8auf31im7pELeT2k98QajeVtjltu3p67xqx+xEVRZqN7iGdwg4W3LmEy+unImmTSup2+l8ZodQWqRWXILpvC+0rBwQiX/wiDv5u7752SlbaawE6Pio3M6p/V/k3D+PIwm5QyzsqEEet2I/oGoQmutcgWOU6lOSqEqVGZsmQEZ+iVStZckiVbuUfmoUNnxWG/wpPifZpyPsvRE/1IYJYu3olBOIwP2bfh9v9FToELP7tSU1D0j/xMqe+/Sm9ufRCIutFKkd+nod0jYyfTi1mYtueIA2hXeHg1hS07NsT1aqbTn7TgnX32hGc2/6F6WIcJ6OnGg3GhGfbQbjQ1dUT4Ir5G5uCB6MtGStVZ5cYz591DZlnUnF5z2qcP/Afh85aSCsV7sRu2H84QpvVQSU/0wVC4gJqauPYPpzZ/QWu6F7EVHiYsnGf7rKLeoQLk27hTuYZMg1twNmNy9WzDmud0/Dthhr9xqB5VBvLxU5C325f3IuzP9GlRHqX9vhFoXrr4ajbPhI1Q4NQUZoFQJgP2TfpArIUXE74ASf3qoVlW9HSCmv1aTyFLkkbqLgkLf3QOhxd5QCRixezPau4JE240OlObgZuH9+P83u+w9kkUwZhO2uP++RK5kXVOSLI9Tpunt6DszsW46xMDl5FGkbWcC7DCLiCQOSwtzCwGXna3egAd6U/peJdZw73FfPA3XcWopg7XoabUw25LcN48NA9gUAROcA9MZQS1SaTRokSR2npDJNGaZGkF4/D6gC/heSvpmOts+lsvRiDIuk6k0aRwFrWK2XSKOszwOPjlzjA03dg/pwNuOrxPpWSDjBplBJBlqxhMGmULHlwbxgB9yHApOE+LLkmCwJMGjwZGIHSigCTRmmVrEfHxaThUfi5cUagCBFg0ihCcMtu1UwaZVf2PPLSjgCTRmmXsEfGx6ThEdi5UUaAEWAEvBMBJg3vlBv3mhFgBBgBjyDApOER2LlRRoARYAS8EwEmDe+UG/eaEWAEGAGPIMCk4RHYuVFGgBFgBLwTASYN75Qb95oRYAQYAY8gwKThEdi5UUaAEWAEvBMBJg3vlBv3mhFgBBgBjyDApOER2LlRRoARYAS8EwEmDe+UG/eaEWAEGAGPIMCk4RHYuVFGgBFgBLwTASYN75Qb95oRYAQYAY8gwKThEdi5UUaAEWAEvBMBJg3vlBv3mhFgBBgBjyDApOER2LlRRoARYAS8EwEmDe+UG/eaEWAEGAGPIMCk4RHYuVFGgBFgBLwTASYN75Qb95oRYAQYAY8gwKThEdi5UUaAEWAEvBMBJg3vlBv3mhFgBBgBjyDApOER2LlRRoARYAS8EwEmDe+UG/eaEWAEGAGPIMCk4RHYuVFGgBFgBLwTASYN75Qb95oRYAQYAY8g8F/XWbeBmXKetwAAAABJRU5ErkJggg==;" parent="1" vertex="1">
          <mxGeometry x="86.41" y="180" width="152.69" height="30" as="geometry" />
        </mxCell>
        <mxCell id="1ywnFp6fYwldvOLJxerw-11" value="" style="shape=image;verticalLabelPosition=bottom;labelBackgroundColor=default;verticalAlign=top;aspect=fixed;imageAspect=0;image=data:image/png,iVBORw0KGgoAAAANSUhEUgAAAVQAAAC1CAYAAAAA/QcmAAAgAElEQVR4Xu1dB3hVRdp+gQAJECDUEHpNItKUIqJSLFQRUFeKKK4s6qJrd8W+lt21913X8osigiJNQUCpKiK9uJBEIRSBEGogAUKyif989+beO+fc0+/hJjl8Zx+e3c2dM+WdmXe++dqpkJjU+HfwwwgwAoxAOUWgsLCwzPS8AhNqmZkL7ggjwAg4QIAJ1QFo/AojwAgwAloIMKHyumAEGAFGwCUEmFBdApKrYQQYAUaACZXXACPACDACLiHAhOoSkFwNI8AIMAJMqLwGGAFGgBFwCQEmVJeA5GoYAUaAEWBC5TXACDACjIBLCDChugQkV8MIMAKMABMqrwFGgBFgBFxCgAnVJSC5GkaAEWAEmFB5DTACjAAj4BICTKguAcnVMAKMACNwThJqbL1kJLTqi5iq8aD/LT/5hzNwJncfcjKXo+DEfl4hjAAjwAhYRuCcIdQqNZPQqPttqJHUFVXiG1kCqCA3C0fTv8LBzVNRdCbX0jtcSB+BuIvro1LjOEWBvC/2AJwFl5eNRxDwPKFWElJoUvfbUa/jKMdT9nvhSfz2/Ys4kval4zr4RaDGtU1RpV1NBRTHnt+G34vLH6MmJjZC1djY4FjO5OfjwIEsnuZzHAFPEypd51NGvIcKlWu4Ms0ndi7HriVPsrTqEM3yTKgJCQlITklB584XoEFD/RvOwewsbNq0ARnp6Th27JghUv0HDEJio1BdH334gUNkvfGaF/DwLKHWTR2KZv2eFCutgu5qKxaS56lDGYrfayRdYLg6Twsda+aC+1m/6mAPl0dCJSK9rHc/dOrcxfaIVyxfitU//Yh8Ib1qPeNuGY9mzVsEf3r6qcdst+GlF7yAhycJ1U+mT2muNSLRw+LqTtd3MkBpPTWFwaqO+JeQPCTs530rX8bBTVO9tI6jNpbyRqidu1yIodcMjwifEzk5mD59qqY6wAsEEhE4qpe9gIfnCLVG465oO+xdzXnOWvsODm2eZvnKToasJpc8iFote/vq27P0KdajRrCDyhOhXjPsWl2pNCMjDdlZWcgSOtP806cRGxeHRkKn2lBc35OTU8MQKjhzBpM/fD+MVL1AIBEsh7BXvYCHpwiVCPC8kZ8JnWl1xWSRVLpz8RM4kbnM0fwndp+AwtwDTKaO0Au9VF4IVYtMz5zJx4oVS/HTjz8aohArDFUXXXQxLuvTT1GO3n/91ZcU138vEEiES0Lxuhfw8BShtrji6bBrOpFpxqw/iet9uptzz3U5QKA8EOpFF1+Mq64apBgdSaRzZ8/U1YVqQUG61xtGjhEGrEQQmZLBSe0F4AUCcbAMdF/xAh6eIVSy6KfeMC1ssvia7uaSj6yusk6ozYWB6GZhKJKfzZs3+sjUyUPS6shRN2LhgvmsQ7UAIBOqBZBsFKmQmNTYsUNiq0GvBnWdgTaPZczDLnHV56dsIFDWCfXmW25F8+Ytg2CRZPrZtLNngPQCgbi5sryAhyckVHLe7zh+Rdjcbp1ytXBv2ufmnEdcV2qd2oivEoPG1eKw79Rp5Bb8D2lHcyKuN1BB4+r/Q9UYoErF33G8oALyCiuJNvRdx1xr2EJFZZlQ1dLp8Zxj+M87b9u65luAwHM6Q7tjNirPhOommsJh1KmEquUmdXznCmR+fZ/ooWOh17XRNa5RDXd1SsGVzZIQX1mwnerJLfwfvt2zH29uTse+vFO22yUS7Vi/AC1r/U/z3SP5FQVpV0H6kcooKLZPruRGltCqT1jYLvnkHs34ShjrvvJ5TtA8VIlPCvahIHe/wpDnhFAJuyuaNsIVzRrhPDqMSvBbnX1YjOc4JqfvcISZGqgbRo1RWOi/nDsbmzautz0Xdl5wQiBE/OTOlZp6HqpUrRrCWngSpKVtw65dO7FZBBaYPb0lo9nx48ctj9Xue6RL7tG9J1JEf2vWrh3s1u7dO0XwwzbR7sbgoeUED7NxRvt3T0ioWsaosqI7vTm1NR7p1sEgvEA55c+t/Rkfpe2wtA5ICr282WldIg0jbiGpLt0jJOOT4aSu1SC5oDUSYbtmwQ6U82DH1/ej6aUPKMrm7d+AX2eHdJJ2CJWIc1xqG9zVOcUUi1k79uC5NVtAB5PT5+FJjwcJioxIz//jWadVWX7PDoFQqGv/gYMUKgm9hsj3dfbsL7B79y7dvjzxVGh8e0Q5cuuy8lh9j/THfURARPeeFxtWSy5l1NeM9DTYwcNKX0ujjCcIte3w98M2/dYpQ0o1mokI4dHuHTGidTPb82qFIOrHFaGfINO6scW26ydSTT9W2fA9K5FmcgWU74Ae2WXNKaESdlMHXIaUBGXcv1GH9508jYnLVmObA/WJ+rp/tnWngXFYJRCSSAeIMFVZIrUy6UZStlViVLdj5T0i03FCH20Uoquul/raWUSjlffIMU8Qavub5odlkNr4tnEIqXpCiZSdPpQ4RR119XyvCzDcAZkG+vBR2k48t3azZpdIMr0hOU/oYp2rM4xItUHnMWjc636ncATfc0KoTsg00CBJqNd8tRR7bapN+ojrr+w3Go3rPvXZCqFqeR7QuyRV7tqZifyCfMRWidUNKtAbixVi1FoAVt5TG/eoHtJJpwsp9PgJv72gVs3aSElJRa3aCcFmSFqVD43yGIrrCULtMjFcZ2SXULXqsMoov86ZgLx964LFSef3r749wl7fL6SoWdt3Y/WBw9h78hSaVK+GHon1MKJNcyRVV6a1o5f/LCSuxb+FZzAa1PIUWtQMv96S8WnLkao4fLKir20i3JQ6hUiqEV6WdKkfb60RplMlfWnrgS9rDp0I8mj6lzhTkie2Wv1kNOg4BpXjE3XL273y6x1E6cdOYPI20pf6JeHGNarjL0IdoMaNdKs3LfrBluZcTagfieuv0XXZ6rowK2dGqCTp3XPvgwqSOZh9AAu+nqfZP9n3NdA2kdR/3nkrLFGLFWJ0QqhqLKmO70ROg+Xin9ajVT5QjgnVbAUZ/+7YKNVpwveoqIqOiiahqvW160cNFsYT5ZV6ttDzPauj5yOp7PlLLvQZX+SHrrF9Zy5S/I0MTwNbhBuu1mVXwZoDoXRy8ktktBrY6rTP8i8/dO0nSVV+zr/pa02C1NNJk4dF00sf1Mx7YFdC7dGwHqb0vyRslejplfWk2UkrN2Lmjt2WV2NZJVR1v4hMSdepl2wlMGC1gU3Ll/ZsEKrWAfDNN1+bRpfp5UxgQrW8hDULOiZULR3qlvd7W47Zp95EIqHuENmnAmGtWtLpmuwjGLvoe1Op6ZP+l6J7w7oKcNRSKulNUxIKFWWMyDRQkHSu17fzS3fy8/7P8UEpVS+pjDw+vSluNegV4QfcR/GzXULVkk7fEp4Pb4h/Wg95AIxLaY2bz2utOihOYKi4+lt9yiKhapHTu8KNy0rOVXr37nsfQNWqoQP2zddfVkipZ4NQ1VFmdoxd6kOA5o4J1eoK1i7nKqFaIQG5G1Z1qCSRxdVtqxiBfOWnq75a0uw36xtLej0iiKUjrlJ4BNCVn0iVHpIwx3dQfjmArvlT0uItIX9JUr7PvUp+ZF1qJMERhMv5N88XN4VQ7lm7hKqW7ElFQhK6WlNM+JKxj1yp9J5r5i237N9bFgk1WegXKXQ18NiN2FKPSS0png1CVasw7KhOtHTFTKiWtrVuIceEqmVEObhlGvYJY5Hbj5YUJxPql1f3U1inSfdHhhKr5qO54v1UybpN7wekLbq6X9NGed1fmRWLzQerWBqmlpQqS7daUvqvc24T+uG1lupvccXfxNX/6mBZO4RKh8kycZjIjyyd0vWedM3jzmuDxhr65sB7AV3rt3v2WXajMiMfS4N3UMhIh0rJlnuIJCuBxw450TukT73r7pBhUe25cDYIVa7TievZ3ffcrzBSMaE6WFTSK44JlbJMtR87T9E6+UZu/ZjymVqlMmudbyz0hQ1Un1OR1Qu/3DRMUZGRtV6rxX8K7wC1q1W7j+f4imoR6tzt1Sz7lVIdf+50QtHs/rwYzNlRDXrRZhvfvtAyhpSVq1G32x0Rqpb+dKwwLtEzvE0zU/cz0lHP2r4HZJSy+5RFtykzg5WVMT7+5DOoUMEfyKG+frtNqKRmeOjhUIJsO9f9wFjcGLMVXM5mGU9Y+QmgFJG2T30VPxvO/Z2FAUz2tTx95FekT78hOEdqQjXSAWpN7F9ERNWd4p/8BAhVyyDlFqHq5ZG1Q6hq6d2OhKpFqGSUM5JGSSXw4bbtPs+JSJz6Ceu/TnosqHMky/hrrwpXOJ1M+25tSCMCcYNcokmo6kOJCdWtVeK8HscSKjWpde0nZ/OfPxosjFNKqcxpF7Wu+5S0+sCaUELrSAm1tCRULSmfcLJDqJFIqJTjYO6QPpamhvTKJI1quZRZqkCjkNooYuTq47QN9XteIlSWUP2z6xkJlQaj5fJD8ebpn40Wv0Z29acrcYebvw5LXq1OwLL82v4K30irFv7AZpsiLP09JEu/mQ7VStRToG7ySx2bqjRqbTlUBT/s91uDtXSoaQI7q7lkG4vQ0wYdCWv/Y0dCpfLqw0gmoNzCQkGiezE57VdXYvfV5KaWsKIhpZ5NHaoZwTm58tupk8JfX3vtJVtnz+13TFREV7EO1RZ8YYUjklCpNj2ndErgsff7l2y5Ucm9IzKlz6rEiZyr8qOVHlDL9anrtHk4YSHOnAwv60YN0bXyaxEixeXTtd/K06lBAXo1Un4wTjZqaalN1BK4UTvni4i1yvEhy7tdQlUfRtQWHUgkjc6y4VdqBQutMmqCowQebnyJtJP4UqpWwhIjQlX7ZtLH/hYt/Nry0NTvqyVuJ4Sq9jxQX+tvv+NOX0LtwKN21TLqvNqIRmWZUC1Pt2bBiAmVatVKlEJ/d/q1Ukpc3eLyp8LIlL4EkDZ9ZFh6wBGtm+OfvZRfyKTY/EkrN5jKyFouVw8LJ3WZTLSipBbsqoadx40TnhAZU7iq2rmfXK4C6f301Cbps8brftAwMJNa79ol1Ee7dcLNqaF8pFS3VR00+bBOTsu07CqltQI1E0xvEgmm5zhLME1tBD6nslmjHiNCVROMXYn5nnseUGR3UvuwyoRKn75+599vm+7ea4aL72x1Cq1tNaGq/VDtuHqpvRqYUE2nw7SAK4RKrWhJWoHWDwt3quzNU00Tp5BUmiQyLdVTWfQD9exY8IBw5g93Hicpc/l1/cMipd7clI43t+h/hkXLGEXX3D5fLFIYXMipn5z75YfCSJeIiCc9UiUyHdTyZFgilV0nYvD1zpB06/cl/Tos6owOo11LntIlVb1EKnYJVct1isZpFPmkTkJjhrPZKtT6BApJqpRo2o6Righx6LARiuxQalI1MzypCYzS3X02/VOzIUDtBqZlIFJLk2ZuWZTtasLtExVtq+tVqwSosFm9VEYvXwFLqKZTbVjANUL1XdFFshO11V9unUiCcqZSzs78kiTUlavW9EmiZPE2Slln5uOqRY7UNrn0vCWIVXbtIev2nSImnf5b/eiFXP5BSJr1NLJMUSjpruOVkVkirZLfaXMR899ZXPXVkim1NeOX6jh0upKiWb3EKGTgyxafzz4iYvkLSmL5SXpv2Hk06ki+p3JldgmV3tWSUunvJOWr88XSbWCciJJSZ6UivfOYhd85tvyriYzaJwlx1aqVoKu3EbESkXYUUpycNzSAiZqAzAhV6xpMpLxo4XzdPgzoPygsZZ4WqanHSFLqZPHdK62x+XMEjA7LHqVF1GpJU07Pp7X7iUxHjR6rmUmLCbWMECp1wyjGPJJuWnXF0tKl2mmXdIc3inBVrUfv+m6nfqNwVT21iZ36qawTQrWSbcrMncpuLL/WuLSuoIFyJLHu2rnT93+zDxxAw8RExIkwzxatWuqmrNP60J8ZoVL9WnHuRFKbNqxHmvhES+Bp0aIlughdrZzEmX7T81bQImuqd/nyxcjKOoATx3NQs1ZtUL09e/bSJDw91yi19Ev9IMwomXSOyDpFT1xsHEgn20mk7As8FAwgh8syodrdccryrkmocrUkcVGSZHXyFLtdpc9I71ryhCKrlFEdVohB732SsG4UEpaRIYt8Uim5tJbkaTY2raQo6nfUUU9mddLvpFeWcXZCqFRPJNhZ1blaGQ+RWf8BAxWb3Mp76jJ6pGaFUKkuI3I36o+ZDtMo05NWvZQKcOg1w4M/6RGqPx/qeIWBygw3OnCys7IUaRSZUM1QM/79rBAqNUnSav1Oo8T1dKxtYiWSyN40BYc2T7PtJUDE8JhIMm0nL6pRVio1fHSl7ytIVev6rwe1nVBVO4cRSe51Uoa6mrHfDnbk5P/wD+vxk4NIKaNlSeTQf+BghTHG6jInQiMyPXbML5WpH6uESu/ZIXeS9FasWGqa5Ynq1VJvaPU1kAvAqndA4IuvcsJoPdwC0vtFItRWzkvLhGp1pWmXO2uEGmiOiLW60I/WETk/a4l/elIrkWju3nVCx7oMOZnLbBOpenh6uj65HEml9BkPu6GTJKF2bnBGJD0pNJRWSSpdK9L72f1gH2FGRiciS7VOOoDT3h9e9OlV2w5/TxAqhar6H7WEGtutLionKtMF5s7ba+giTLrlESL0lBKhqFMiUhtOYvedLFO6IienpvqMTMnJqbpVkNSWnrENGWlpukQaeJkkz0aNQt/gMvsMCZEUkQ59n0l2TwrUF0jivEKQuB0DGukxBw4aElYnETMlhZYPBToEAk9W1n5TVy661nfucoEmZkSkP/24MpjblQ4NytofeMzwcDKPZ/sdTzn2OwGLDCsxgjSCJCAlinZSn9E7ZMXu0bA+mtQIkcrevNOCRA+54qxOsf71qhejasXQZ1EOnY7BvtxKjj7OpzUWMtjpYaUmVLc/46023Nk9fNycTyK3hpLP5Rmhf7SSWs+tPqjbzxa5Uu2QqFY/6NCoWbOW76ezMR4i7rNVt1u4RlrPOU+okQLo9fdJQqUvmlp5ukykr4SGvqpqJyjASv1chhEo6wgwoZb1GSqF/hGJNug0Ruicx/hUHrsWP2HaCy1fVLs5aU0b4QKMQBlHgAm1jE9QtLunTnBC7Zu5ihEBp9wwTXwoMaQPpPfsfoYm2mPl9hgBtxFgQnUb0XJen95nUPatfAkHN4VH6VCWqlYDXxIBEcqUg27rT8s5rNz9cwQBJtRzZKLtDFMvdJeSduftXycs+v4vsVar1w41Vd+Ror/78xzcYBrea6dPXJYRKA8IMKGWh1mKch+1vg9lpwtmKgI7dXFZRqA8IcCEWp5mK4p99V3lxZdM4+q2s9Uqk6ktuLiwxxBgQvXYhLo5HDsRZuTE/5v4KGK+SDrDDyNwriLAhHquzryNcROx1haRZfHCqb+yZMkn/1TSqZ4QUWVMpDYA5aKeRYAJ1bNTywNjBBiBaCPAhBptxLk9RoAR8CwCTKienVoeGCPACEQbASbUaCPO7TECjIBnEWBC9ezU8sAYAUYg2ggwoUYbcW6PEWAEPIsAE6pnp5YHxggwAtFGgAk12ohze4wAI+BZBJhQPTu1PDBGgBGINgJMqNFGnNtjBBgBzyLAhOrZqeWBMQKMQLQRYEKNNuLcHiPACHgWASZUz04tD4wRYASijQATarQR5/YYAUbAswgwoXp2anlgjAAjEG0EmFCjjTi3xwgwAp5FgAnVs1PLA2MEGIFoI8CEGm3EuT1GgBHwLAJMqJ6dWh4YI8AIRBsBJtRoI87tMQKMgGcRYEL17NTywBgBRiDaCDChRhtxbo8RYAQ8iwATqmenlgfGCDAC0UaACTXaiHN7jAAj4FkEmFA9O7U8MEaAEYg2Akyo0Uac22MEGAHPIsCE6tmp5YExAoxAtBFgQo024tweI8AIeBYBJlTPTi0PjBFgBKKNABNqtBHn9hgBRsCzCDChenZqeWCMACMQbQSYUKONOLfHCDACnkWACdWzU8sDYwQYgWgjwIQabcS5PUaAEfAsAkyonp1aHhgjwAhEG4EyRahLVvz4e7QB4PYYAUaAEfAiAhUSkxozoXpxZnlMjAAjEHUEmFCjDjk3yAgwAl5FgAnVqzPL42IEGIGoI8CEGnXIuUFGgBHwKgJMqF6dWR4XI8AIRB0BJtSoQ84NMgKMgFcRYEL16szyuBgBRiDqCDChRh1ybpARYAS8igATqldnlsfFCDACUUeACTXqkHODjAAj4FUEmFC9OrM8LkaAEYg6AkyoUYecG2QEGAGvIsCE6tWZ5XExAoxA1BFgQo065NwgI8AIeBUBJlSvziyPixFgBKKOABNq1CHnBhkBRsCrCDChenVmeVyMACMQdQSYUKMOOTfICDACXkWACdWrM8vjYgQYgagjwIQadci5QUaAEfAqAkyoXp1ZHhcjwAhEHQEm1KhDzg0yAoyAVxFgQvXqzPK4GAFGIOoIMKFGHXJukBFgBLyKABOqV2eWx8UIMAJRR4AJNeqQc4OMACPgVQSYUL06szwuRoARiDoCTKhRh5wbZAQYAa8iwITq1ZnlcTECjEDUEYgKocbE10a9ahWDgys6dRyHcouiPlhvNlgJ8fVqoXol/+gYW2/OMo+qfCBw1gg1LrEt+l3ZFxe1q4ealUNkGoCluDAP2b9swMJvf8KmAwWaaLUcciv+dEEt8dtxrJn8AebsKR+gWutlR4x/4gq0osK7FuORj7dYey1QKrYRrho9DJe3rovYEjIN/FR08iC2/fAVpi7Lwml7tXLpEgQuvuk+DGlB/2c35j09Ez8yMuEIdL8Wfx/Q3CEyXtzTgPuE6tvo12FAu1pQ7XMd4IuQ88tifPDxWuz5n7JIm2vvwl3d/IS66t03MT3T4dyVydcuxF3/HIg21LfMBbj73fWWexmXMgD3je2KBoYAF+P0/lWY/K9lSFfharmhc7hgnwmPYbjvtNuJ2ZOmYvnv5zAYekO/ZAxeH9LSITBe3NMuE2pM2764f0wvJMWGMCZpafev27HtQF7wjzUSk5HcOgkN4ysjILsW52bg83/NwKpjoXeZUDXWaqur8MT47qhbAhzhu31bGn49ckYUroq6rc5D5zb1EVfye74g6+cFWR91uOzP1dfKBqFKt5icjXjvjWWC3svQoyuhVkJstap+garoDE6e0VLvlSUJ1T2cXZNQY9oOwCO3dA1t9OPbsfDzuVi64zS0BSSh+2vfB3dc1wONS3Z/0c6FePw/63CyZM0woao3TzVcdec9GNyE2LIYR7bMxFufZoSRZUz9brhjYn+08R1sBdg+7y28+cOpMrQTy35XygahSreY4+vw5j8WYnvZh070UHn7ukcc6GVbwHcPZ3cINUF06G5xffVtYP2NrrkWYlti9F9GoWvxOrz72jeK6ykTqgqx+F544NG+aEp/NtlgMW0H4/FbuyCe9KnLZuH9Hw6Xi61YVjrJhBrJTDChRoBeNVw6fiKua1PVV0fOxqn452c77RlDEmqjQW4ODrIO1XgeWg3A3yZ0RW3i0/Uf44kZRla6amjWuhoO7Thsby4iWAleepUJNZLZZEJ1jp60yXF8I/794nzXjCDWJVShPmjSChf16Ig2tauhVt04nD6Si5M5mVi3cqOuF4Fv0LE1kFiriu9/njl+FMfyjaCogoSGNYSmkgrn4UCOtncC/UxeDt26pqJ9w7qoVxc4fOQEjmVuxNLvM0sODgdGKQnrYqEbfUhcpQqdzFxMHOoLjEjHFRqzwLB1Kq7o1gGJteNRKyYXx08cw/aNG/BT2kHkWjVsibqbpnZEry6tkFA5FtXj8nHy9Ekc2LwBizftjX49YpQ0rss6J6NZ7SqiP7GiP6JP2WnYsm6b7trQItSY+Ca4sPcFuEAxp1vw3apfsd9w3diZJNkNrj1G3dsbLej1Ez9jygffY2+gKt31F8FesNNNw7JOCFXutzxPP+OnFWn4RcPNUuGOabIf5X1OarDj2acRE3Q3dIKzNgARX/k7jr4Pt3asJmovQNqsl/HOGvf8S60QakzTbpgwuh/aJoQMXMqhkrV7A2ZO+xZrD2n0TVgqXxOWygripe3znhW6RqOVYoEEzbwcio7j56+mYPJPrXGHbSt/e0x4ZjjaVxZ9LD6GVR++g+m/OsBbImbfmLcmY+TYIeiRFBc0EsooFJ/Owuo5n2P65lzDbVSn0wCMH3ZBUCceVliMPeObz/DuioM6enX/G27VE9eiB24Z1Q/JtfTcIWhtrMaUd5dgq4oQlYQ6A4eGjMXYno2Cxj7F2IqOYN3nn2CKCT7W+KoxRk66BT3JucXo0fAMiXgvWOughVI2CTXBeP0Jy5a2J1B8F0y8fzDakaqxeD8Wvvh/WCAZtUMdjcfld9yBoc1JcBIqybWf4O8zi3CdQ5yNAIiQUNtg3BMj0YX4tDADnz4+A6stwG21iBmh1ul+Pe4dloyaQTfXYhQI6aOQNOAVKiMuTiJZsehXTn4Xn6sJyE1CTTgfE/48FO3jpSCGM6eQ7+M8yfKJM4K8BVJDLrPtNhXChNZGHn5Z/iVmLA1IvRaRlQl16QIU9+yPdiWGweLCfJwuLFb1l+oVfV7wHv69IkeTDOsIHB8SB1NcoAuSdbeikFTjgr7IgQW9R7eev4p6go4ijusZjYcGtZIIsAj5p86IrUlDq4rqVUMkq+VhEiLUPVi9Nh7duiX4DhtdfCI54BTT5oxQXdkLFpePeTEbhKqwv1DN0jyp9nDx0XX4zysLFTfgmAuvx3PXJ/vWS3H2Srz06jLsU3WwTu+b8PDAZr6bZaiMM5zNxh4ZocpGkt2LcP+/1xpKHmadUf9uRKhKrwI6wZZi6ox1iqtBTP1WuPq64biseYnklS98Cl8XPoXyKeYaodbHsHv/hL4N/WRanJuJBdNnK7wc6MrY74brMLBNDVQsLkZxxYp+idCOH2pMM/zhnjHoVU+SuopOIit9M5b9uArrdb0qJHQlQi0qKkKlSpXgk0K/mokvNkiEKaTtPtcPw9D2dUt8io9j9Qf/wqeqQ4nmYpLw8KjnYxxB8t9+hv9TBPmkPGUAAA+jSURBVBVUQoMLrsQtQ7uWuNTRgfKOuA0oJV7FnLpVj9igBzd9iQ/nbFVcy9XSa4FYv/8Q6zfgXhYk1OIiUUMl8Z/wccXEt8bQW0egd6LffqC3oe2te/tXftf2gr2OGpS2SKhiLY+870b0rOP3WjmxfQk+/GQ1MqXbQkz9VFw3Zgh6lmAc7gZYCR1H3yVuyTV8dRxZ/RGeni1RakI33HNff7SkW13hHnz5ysdY4tv/9nG2Ak9khGrLSGKlO8oy+oQqk9cZ7F78Ed5YrHeNrISUa2/HbSUSRoEgr2eE7vFEoCmXCLVmv3H421VN/FLM0Y14/435YddIf5PK/vj+ZIdQqXxMbVwyaixGtA8PniguzMGuTSvx1fyNioWpQFbWe9MPWgdN8IVKaHbVzbirXxJ8muYw7wJx0j8srqhkKRMBGFqEG6hKQbx5m/Hus19ha7AdWWIwryfoomdYj7FUDdrQ94oN7XPqVTqahyRU6mAetkz7Fz7YrKEzjxG3tIfFLY32Mw5h2av/wZxs+2td+w0r7jwu7gW3um3RbUq+beUII+szwsiqqapXEG8e1k1+DVPSpc6K30c/eBN6kJpEcVOQr/rah7i/Fis4WwPHNULNWfshnpypFratdUKvlC6hplyNZ8d1Qrx4US1ZaNclL7rDWPHGO5i1v6SkK4RaHyMeuA296/lJxTyqSynN2ibUkq6TBN7/6kHo06Y2qqije4XUumPFdLz3jUb4qYJQ87Dxkzcx+b9Guth4DLzrLgxoTI0UYOuMFxAM7BJXrhfElYtktNwt0/HUp9sNbyntR96DCZ2JfcLreVHUQ6TtVj1hh6fG4og5vy/GJefgu2+2KG43MqEWZMzBIx/+V9cAKBODuR7ezp6wsNHd3At2umZY1oqEKtkD8n7GB/+ciy1Ghk95nOmz8dDkrQrfVoWUXmIcP9jrJkwSV31aU/nb5+O59zeGBClF/y3gbBGbckmoIUOYxmmlM/CY7n/AP0a084F7ZPUH4lqQ5S/pBqE27ItJ9/ZCIh2Qe5fgybdW6UxcqHMxot0Xha7Q9pVfa3zCst6uc09cdmknnNewuhTyK4wu2xfhhfdVkVIyoR5ehRdeWhKmdwprRhBngPBOCuJ8RBAnPaG5sHKQiBfOvwbP3dgBRKmy65eTev4u6qmuqqfHuAcxOoXo3fra0II0RKinxIHzijhwDHaUFIKpJlSlpKtfhzYRm290V/eCLKkZEohZOK4FQhXrIDB/1oQxyV5zQngT/V14E6n62Gb4REzs4dd152b8jMOtOviv+qaEbY6zRT6NMJa/mQiD/LMIgyQiESfAveIEcPPRllAThK5yotBVipbsGMJihC7lWaFLoQ7KV2w3CFUimwPfv41/zNc0NSqhkfXPdq/8BiDHJbbHwBFX4tJmQk/rK1eMA9+/J/p0KPSWI1WNtOj2LcPjb64Uh4Y0F7IxwWgRyIaG4Lgjr8cfjeNwbWj0VzZKffm40LsZ+aeVGqE6HK9qL4QimaQ5PsuEmjj4Nky6tL6vlaKg4dao0YqoHBtbchPTI3TVzc+3/K14w5QVQoUktp8SYvvTQmx3kVG1CVXS2dkKx5NOuKNr8NoL3/jjot0gVIMNpQ+HBRcsx1gKI1Dvkbh/YIm1vPAXTP/b51gVuFJJhGr5AIDQUz0i9FQ1RaeCuMv6UwedDRKqRYurXhOiHj8pOF0b4RXbcuw3mP+42nVQy2+zMny0faDNNrqEmxt7Qdzfgn7Whr0lP848g4ARcwlV4a1iBk7Y7wYScsJleOivl4mV4H8MdbPBes1wtt7ByK784nLZZ8JfRVYekoUiu2JpddldQpXI3yVCDZ7sZY5QCc1K6HnL/RiZTEoOlb5SIlSF+sNw3UgHkhahntqN777LMFV1KJo4molvt1BIrEQMkdYTMJDZIpizR6jWt6JWSbON7pRQdfZCZJ2V3rZDqKeQ+eMP2Ba0ElvpRA62Lf9FU01FLlIBvSnVVCz2+ttCeDLOgWCGs5U++ctESKjC4CzpJovFVfAZcRV0K7ORNqFWEwaS+4SBhNDKxBePfIrvrYxXumIr1BN2JFTVNT1IqJI+yDJBSXpX60apKkjqcBEGtczG+19mmI46Riyul4VSnh6Fjk4iVFkfalihfE0Musip5uJRMReOsmA4nNOwDrtVD4SgYCN9n6MD1XT6RAGzje5wvKq9cJ9Q1TmaNt0hmBNqzSv+iGeuSKJNjF/m/h1vr7KCh0mZBJHr4kGR68LnahNwSzT2e/bXaIaz9b5FTKiArLcowM4F/8ZrK4wjasK7J66oTRKQu1cZd65n5Q/93Xp0luzWpLjmSoRqqhyXdKVEgkFClYnWopEntKAEGpZ0qOdj/N+GokNVsVrUV3id+bZCqAhzO9KuTDaiyTiFjCIWjDcG69KtepysDa1ulQ9CBZyMV3cvWOcNk5LmhErGyYBRyvKhbtiqzEPkuTILpwbdiF7k42qqRy1ThCqkVDl1n3DI3jrnA7y7xiqpBvR9zXFSlY5O120q6XI89peegsotivSyr2BxNr59/T3MC/gKCmntKZFwJMEn8C7Ag0IXp+29UU1ILXcK9YY/7l9BqJDT6p0RbkWvCLciAzckhe+iVUKVr/BWdENyeRXZKdymLByCsp+fWrUj3FmeES5spFq1dENJugx3j6iFzfMWYfkuya9TcotxrR4L172Y86/Go4NrIeOH5Zi/OpRroLwQKtzcC9EkVGEeHvvYGHT1+eMbhY0GOlUfQ24bgoT/LsQXK8NdARUW/oD7npw72NDSX8YIlYZMoYehkEGKTpmD975IC8sgpZizsLj3ImTOfwWvf0/JkuXTV+2SI5ObiLBI/xKvCr8WTVWDcIK//I9/wtBWfstAvvBhe1T4sIVIU+iTnhbx8b4wX/2JVY5PTajiUJFC4JC/Fws/mIIFv2mQqqo/AXK2lLFfkVzaOKBB0d/8NEx5aibWBcBXO/YbnuDx6DnuVvwhxe81EE52so+quF6tn4YXZ+hkG1OE5p7E+o9fxcfbAp1yqx7l2tDLGetrVfTn9juHIZV8r8RBIfvjlg1ClUO7VYbF4EZycy+4xagWJFTiDHHtf1xc+82DYZRrMG/Tp3hU+nyHQqBTEadMtOF7PzBeKzhbw8aFK3+gIREBNPiPuOXShlIcdklI5JpN2C2sgpSdyZchJqkJena/GF1TGqBGMIJSkPDa6XhlZmgzGsbyq2KAi0RC6yXzluK7QGYkynrU+WJc278HWpbE1mvFApPxpse4e4XvYkn0eH42Vs2bjbnr/OoHChe9ZPBADOwsxqUKF1UmzlWmMQQlAlmxEF+tysRvvkw5fv3nsCG9/Mk68s8gP7aqHytLV34qqI6youQeP2PhopXYvFtkyhLenYnN26JPn0vQvWUgikojQkQi1ILCAlSpLE6T4tPYt34hpn2THuxvQnIXjBohJRfRO3CS+uLhO3uhkc9PK9CnZVidUWIJFhm9Ui/si6FXdgp+zUFzcYt6Jol6EiOtR7U28g9sxoIF9vpTNghVvvmIJeMbx0rsrtIWPVJ/x+rP1/g9VVzbC9ZIw7yUNUJVqgtpCWZhw+LFmLd+d0nWN+F1kNweQwZega4loafIFzlDnhU5QwISkSqKKjxIRRlJphXyDMUN0wBn84FHbpRSt2GaKUirU5StZ+Y0TJPjyEU5s+QoMU174c4/9kbLwPc+DAaslQAjWDwsQYNWReEJTcIykcc0wMDbb8aAJiZ+Mj6JcA3q3yqy6tsi1BJSVR9cuuMWh9TqqXh+tiqkTyLUnPWLsLFxH/QNLFi9uvSSy5SUj2l7FR4a1x0NTT8kphNsINXzV1GP8feySohbK2ghWE/453j0hpafuQgv/99axW2qbBCqSp0mD0DlxeDaXrBAGuZFrBIqSSwauSl0Gig+nYm5b3wq5eIQAsb1f8YdF/pTc+lG2MkHvk6YtfqLI8Eu2PQWcVFClVAQ19oO/S7H4B7t0CjwfWMNkIrOHMH2lYvwhU62JDNC9VXpUxtciyu1wi/pdxGC+duGhfh4rrH6IaZ+Z4wbPxAdNFK9FZ3chx9mTMWs9A6KD+tpf9qhClr1HYGbr2iD2hrkQpL0/E9mYMlvnR1/pI+G5UvucUMfnbSFIuvWsT1YtXAuZmmllJMJlUKG555Et2uuxbUXaqWnM0l/KE87JbK4YQC6N5GjtUIFKM/Ar0tn4kOTr7H6EmK4UI/52hC3iMVfaPanrBAqoUdCyh+HdkFTeS/Jrn8BiF3aC+aEaVbCBqFSVYIvul0zHMMuaCzdWKU2igtxdPtyTPlUmTglrtNwPDqqvS8E3SwaqrEIJHhABBL4gqdViXACLVnG2WD4Z4dQpQbjajdC8nlNUT++DpqLjZa39zccyRWJi7ftxk6DBM1mUxb2u7hWtmzbBm2SEkU7VXBkxwEcObILG+0kR6YMNCJRdZc2iUhq1gDI/g07d23DlsDV1U6nfImWk5FC/RFRXVl7DmDf9gz8d6/eN7bsVB4qG1e7OToKdURSYmvULdyL3VkHzLFVE2ogBwNdzc8/D62aN0UjiI8rWqlLo9sx8Q1wfocWqF8nEW1q5GG7+EDjiSz7OLpVDyUXpnE1SRT9qVOAPXuO4nDWL9i2I8d6wmtn0+PiW3J2JBPHelf2gotdt1pVYM/UrYNGrWsgV+zhvLxsrPtvQAVgtaJIytnAWaOZs06okQyN3z1LCOgR6llqjqtlBM4VBJhQz5WZlsfJhHouzjqPOQoIMKFGAeQy1wQTapmbEu6QNxBgQvXGPNobBROqPby4NCNgEQEmVItAeaoYE6qnppMHU3YQYEItO3MRvZ406yt8RruAvlqSs2EaXphXkmw7ej3glhgBTyLAhOrJaeVBMQKMQGkgwIRaGqhzm4wAI+BJBJhQPTmtPChGgBEoDQSYUEsDdW6TEWAEPIkAE6onp5UHxQgwAqWBABNqaaDObTICjIAnEWBC9eS08qAYAUagNBBgQi0N1LlNRoAR8CQCTKienFYeFCPACJQGAkyopYE6t8kIMAKeRIAJ1ZPTyoNiBBiB0kCACbU0UOc2GQFGwJMIMKF6clp5UIwAI1AaCDChlgbq3CYjwAh4EgEmVE9OKw+KEWAESgMBJtTSQJ3bZAQYAU8iwITqyWnlQTECjEBpIMCEWhqoc5uMACPgSQSYUD05rTwoRoARKA0EmFBLA3VukxFgBDyJABOqJ6eVB8UIMAKlgQATammgzm0yAoyAJxFgQvXktPKgGAFGoDQQYEItDdS5TUaAEfAkAkyonpxWHhQjwAiUBgIVWrRq83tpNMxtMgKMACPgNQQqNG/VmgnVa7PK42EEGIFSQeD/AecrD7v1XbINAAAAAElFTkSuQmCC;" parent="1" vertex="1">
          <mxGeometry x="86.41" y="210" width="131.49" height="70" as="geometry" />
        </mxCell>
        <mxCell id="1ywnFp6fYwldvOLJxerw-12" value="CSV/TXT" style="text;html=1;strokeColor=none;fillColor=none;align=center;verticalAlign=middle;whiteSpace=wrap;rounded=0;fontSize=24;" parent="1" vertex="1">
          <mxGeometry x="320" y="175" width="60" height="30" as="geometry" />
        </mxCell>
        <mxCell id="1ywnFp6fYwldvOLJxerw-13" value="&lt;font style=&quot;font-size: 14px;&quot;&gt;Lecture Notes&lt;/font&gt;" style="ellipse;whiteSpace=wrap;html=1;fontSize=24;" parent="1" vertex="1">
          <mxGeometry x="90" y="410" width="120" height="80" as="geometry" />
        </mxCell>
        <mxCell id="1ywnFp6fYwldvOLJxerw-14" value="" style="endArrow=classic;html=1;rounded=0;fontSize=14;" parent="1" target="1ywnFp6fYwldvOLJxerw-15" edge="1">
          <mxGeometry width="50" height="50" relative="1" as="geometry">
            <mxPoint x="210" y="450" as="sourcePoint" />
            <mxPoint x="260" y="400" as="targetPoint" />
          </mxGeometry>
        </mxCell>
        <mxCell id="1ywnFp6fYwldvOLJxerw-15" value="Raw Data" style="ellipse;whiteSpace=wrap;html=1;fontSize=14;" parent="1" vertex="1">
          <mxGeometry x="217.9" y="410" width="120" height="80" as="geometry" />
        </mxCell>
        <mxCell id="1ywnFp6fYwldvOLJxerw-17" value="&lt;b&gt;&lt;font style=&quot;font-size: 24px;&quot;&gt;BERT&lt;/font&gt;&lt;/b&gt; (NLP Model)" style="text;html=1;strokeColor=none;fillColor=none;align=center;verticalAlign=middle;whiteSpace=wrap;rounded=0;fontSize=14;" parent="1" vertex="1">
          <mxGeometry x="90" y="550" width="60" height="30" as="geometry" />
        </mxCell>
        <mxCell id="1ywnFp6fYwldvOLJxerw-19" value="" style="shape=flexArrow;endArrow=classic;html=1;rounded=0;fontSize=18;" parent="1" target="1ywnFp6fYwldvOLJxerw-20" edge="1">
          <mxGeometry width="50" height="50" relative="1" as="geometry">
            <mxPoint x="480" y="490" as="sourcePoint" />
            <mxPoint x="490" y="440" as="targetPoint" />
          </mxGeometry>
        </mxCell>
        <mxCell id="1ywnFp6fYwldvOLJxerw-20" value="Trained Model" style="rounded=1;whiteSpace=wrap;html=1;fontSize=18;" parent="1" vertex="1">
          <mxGeometry x="520" y="460" width="120" height="60" as="geometry" />
        </mxCell>
        <mxCell id="1ywnFp6fYwldvOLJxerw-23" value="&lt;div&gt;&lt;span&gt;&lt;em class=&quot;qkunPe&quot;&gt;Tokenization&lt;/em&gt;&lt;br&gt;(Give weight)&lt;br&gt;&lt;/span&gt;&lt;/div&gt;" style="shape=step;perimeter=stepPerimeter;whiteSpace=wrap;html=1;fixedSize=1;fontSize=18;" parent="1" vertex="1">
          <mxGeometry x="330" y="410" width="140" height="80" as="geometry" />
        </mxCell>
        <mxCell id="1ywnFp6fYwldvOLJxerw-24" value="" style="shape=flexArrow;endArrow=classic;html=1;rounded=0;fontSize=18;" parent="1" target="1ywnFp6fYwldvOLJxerw-25" edge="1">
          <mxGeometry width="50" height="50" relative="1" as="geometry">
            <mxPoint x="400" y="490" as="sourcePoint" />
            <mxPoint x="450" y="440" as="targetPoint" />
          </mxGeometry>
        </mxCell>
        <mxCell id="1ywnFp6fYwldvOLJxerw-25" value="Pretrained NLP model " style="ellipse;whiteSpace=wrap;html=1;fontSize=18;" parent="1" vertex="1">
          <mxGeometry x="340" y="530" width="120" height="80" as="geometry" />
        </mxCell>
        <mxCell id="1ywnFp6fYwldvOLJxerw-26" value="Output" style="rounded=0;whiteSpace=wrap;html=1;fontSize=18;" parent="1" vertex="1">
          <mxGeometry x="710" y="300" width="120" height="60" as="geometry" />
        </mxCell>
        <mxCell id="1ywnFp6fYwldvOLJxerw-27" value="AI model" style="shape=hexagon;perimeter=hexagonPerimeter2;whiteSpace=wrap;html=1;fixedSize=1;fontSize=18;" parent="1" vertex="1">
          <mxGeometry x="520" y="290" width="120" height="80" as="geometry" />
        </mxCell>
        <mxCell id="1ywnFp6fYwldvOLJxerw-28" value="" style="endArrow=none;dashed=1;html=1;rounded=0;fontSize=18;exitX=0.5;exitY=0;exitDx=0;exitDy=0;entryX=0.5;entryY=1;entryDx=0;entryDy=0;" parent="1" source="1ywnFp6fYwldvOLJxerw-27" target="1ywnFp6fYwldvOLJxerw-9" edge="1">
          <mxGeometry width="50" height="50" relative="1" as="geometry">
            <mxPoint x="550" y="270" as="sourcePoint" />
            <mxPoint x="600" y="220" as="targetPoint" />
          </mxGeometry>
        </mxCell>
        <mxCell id="1ywnFp6fYwldvOLJxerw-29" value="" style="endArrow=none;dashed=1;html=1;rounded=0;fontSize=18;entryX=0.5;entryY=1;entryDx=0;entryDy=0;startArrow=none;" parent="1" target="1ywnFp6fYwldvOLJxerw-27" edge="1" source="FH-V5DfXmvbx8NxzAunP-1">
          <mxGeometry width="50" height="50" relative="1" as="geometry">
            <mxPoint x="580" y="460" as="sourcePoint" />
            <mxPoint x="630" y="410" as="targetPoint" />
          </mxGeometry>
        </mxCell>
        <mxCell id="1ywnFp6fYwldvOLJxerw-30" value="" style="shape=flexArrow;endArrow=classic;html=1;rounded=0;fontSize=18;entryX=0;entryY=0.5;entryDx=0;entryDy=0;exitX=1;exitY=0.5;exitDx=0;exitDy=0;" parent="1" source="1ywnFp6fYwldvOLJxerw-27" target="1ywnFp6fYwldvOLJxerw-26" edge="1">
          <mxGeometry width="50" height="50" relative="1" as="geometry">
            <mxPoint x="640" y="340" as="sourcePoint" />
            <mxPoint x="690" y="290" as="targetPoint" />
          </mxGeometry>
        </mxCell>
        <mxCell id="FH-V5DfXmvbx8NxzAunP-1" value="Training Material " style="text;html=1;strokeColor=none;fillColor=none;align=center;verticalAlign=middle;whiteSpace=wrap;rounded=0;fontSize=18;" vertex="1" parent="1">
          <mxGeometry x="550" y="410" width="60" height="20" as="geometry" />
        </mxCell>
        <mxCell id="FH-V5DfXmvbx8NxzAunP-2" value="" style="endArrow=none;dashed=1;html=1;rounded=0;fontSize=18;entryX=0.5;entryY=1;entryDx=0;entryDy=0;" edge="1" parent="1" target="FH-V5DfXmvbx8NxzAunP-1">
          <mxGeometry width="50" height="50" relative="1" as="geometry">
            <mxPoint x="580" y="460" as="sourcePoint" />
            <mxPoint x="580" y="370" as="targetPoint" />
          </mxGeometry>
        </mxCell>
      </root>
    </mxGraphModel>
  </diagram>
</mxfile>
